# xmcd
# 
# Track frame offsets:
#     150
#     19805
#     56370
#     87545
#     125212
# 
# Disc length: 1930
# 
# Revision: 4
# Processed by: cddbd v1.5.2PL0 Copyright (c) Steve Scherf et al.
# Submitted via: fre:ac v1.0.31
# 
DISCID=40078805
DTITLE=Chaka Khan - Love You All My Lifetime
DYEAR=1992
DGENRE=Soul
TTITLE0=Love You All My Lifetime [Album Version Edit]
TTITLE1=Love You All My Lifetime [The Diva Edi]
TTITLE2=Love You All My Lifetime [Garage Mix With Strings]
TTITLE3=Love You All My Lifetime [Love Suite 12Inch Mix Act 1]
TTITLE4=Love You All My Lifetime [Love Suite 12Inch Mix Act 2 Dub]
EXTD=
EXTT0=
EXTT1=
EXTT2=
EXTT3=
EXTT4=
PLAYORDER=
